<?xml version="1.0" standalone="no"?>
<!DOCTYPE svg PUBLIC "-//W3C//DTD SVG 20010904//EN"
 "http://www.w3.org/TR/2001/REC-SVG-20010904/DTD/svg10.dtd">
<svg version="1.0" xmlns="http://www.w3.org/2000/svg"
 width="800.000000pt" height="800.000000pt" viewBox="0 0 800.000000 800.000000"
 preserveAspectRatio="xMidYMid meet">

<g transform="translate(0.000000,800.000000) scale(0.100000,-0.100000)"
fill="#000000" stroke="none">
<path d="M2543 4629 c-68 -20 -68 -16 -71 -481 l-3 -418 60 0 c55 0 61 2 84
32 l25 32 36 -31 c84 -75 256 -60 330 27 33 40 40 67 34 136 -5 62 -28 100
-76 123 -40 20 -40 27 1 45 46 19 79 75 80 134 1 90 -53 143 -165 162 -78 14
-153 2 -198 -30 -16 -11 -31 -20 -34 -20 -9 0 -7 141 4 185 10 45 41 75 76 75
17 0 24 6 24 20 0 19 -6 20 -87 19 -49 0 -103 -5 -120 -10z m295 -316 c27 -29
31 -110 6 -148 -20 -31 -83 -55 -144 -55 l-50 0 0 83 c0 78 2 85 29 111 52 50
118 54 159 9z m-90 -274 c72 -15 105 -53 110 -127 5 -75 -15 -118 -61 -130
-47 -12 -75 -4 -113 35 l-34 34 0 99 c0 114 -3 111 98 89z"/>
<path d="M1953 4379 c-68 -16 -103 -65 -103 -145 0 -21 5 -24 34 -24 30 0 36
4 46 35 24 72 112 111 183 81 45 -18 73 -71 82 -152 l7 -60 -113 -11 c-181
-18 -237 -43 -271 -120 -25 -57 -21 -125 12 -178 59 -96 271 -118 344 -36 26
28 38 27 64 -9 20 -27 28 -30 77 -30 l55 0 0 218 c0 245 -9 297 -62 358 -53
60 -99 78 -213 80 -55 2 -119 -2 -142 -7z m247 -414 c0 -56 -5 -96 -15 -115
-52 -100 -181 -92 -200 14 -21 110 45 183 168 185 l47 1 0 -85z"/>
<path d="M5330 3536 c0 -20 -4 -22 -26 -18 -30 5 -44 -10 -44 -50 0 -31 35
-57 52 -40 6 6 17 8 24 5 11 -4 14 9 14 61 0 37 -4 66 -10 66 -5 0 -10 -11
-10 -24z m-5 -61 c0 -23 -4 -30 -20 -30 -21 0 -31 25 -21 51 11 28 41 12 41
-21z"/>
<path d="M5550 3496 c0 -37 4 -66 10 -66 6 0 10 11 10 24 0 21 6 25 33 28 29
3 32 6 32 38 0 34 -1 35 -42 38 l-43 3 0 -65z m70 24 c0 -14 -7 -20 -24 -20
-23 0 -41 22 -29 34 4 3 17 6 30 6 16 0 23 -6 23 -20z"/>
<path d="M5780 3495 c0 -37 4 -65 10 -65 6 0 10 28 10 65 0 37 -4 65 -10 65
-6 0 -10 -28 -10 -65z"/>
<path d="M1828 3485 c-15 -36 -22 -65 -17 -65 5 0 12 7 15 15 8 21 61 19 73
-2 5 -10 13 -15 17 -11 9 9 -37 120 -52 125 -6 2 -22 -26 -36 -62z m52 -7 c0
-20 -2 -21 -24 -12 -12 5 -13 10 -4 30 12 26 28 16 28 -18z"/>
<path d="M2375 3540 c3 -5 8 -10 11 -10 2 0 4 5 4 10 0 6 -5 10 -11 10 -5 0
-7 -4 -4 -10z"/>
<path d="M2900 3485 l0 -65 45 0 c50 0 67 18 48 49 -7 12 -8 23 -1 35 15 26
-8 46 -53 46 l-39 0 0 -65z m76 34 c8 -13 -13 -29 -38 -29 -11 0 -18 8 -18 20
0 15 7 20 24 20 14 0 28 -5 32 -11z m2 -60 c3 -17 -23 -29 -45 -22 -7 3 -13
14 -13 24 0 16 6 20 27 17 16 -2 29 -10 31 -19z"/>
<path d="M3361 3528 c-10 -27 1 -119 12 -102 3 7 8 34 8 60 1 27 7 52 13 56 7
5 4 8 -7 8 -10 0 -21 -10 -26 -22z"/>
<path d="M4010 3486 l0 -66 41 0 c24 0 38 4 34 10 -3 6 -19 10 -35 10 -29 0
-29 0 -23 49 3 31 1 51 -6 55 -8 5 -11 -12 -11 -58z"/>
<path d="M5957 3533 c-7 -26 6 -106 18 -110 6 -2 10 17 8 49 -1 29 -2 59 -3
66 0 18 -18 15 -23 -5z"/>
<path d="M4234 3525 c-16 -33 -2 -99 21 -104 17 -3 18 -1 6 13 -8 9 -11 28 -8
44 2 15 1 36 -3 47 -7 19 -7 19 -16 0z"/>
<path d="M3788 3520 c-7 -22 5 -100 16 -100 7 0 10 18 8 55 -4 50 -15 71 -24
45z"/>
<path d="M5386 3504 c-13 -35 -6 -64 19 -76 21 -9 29 -9 41 4 13 13 12 14 -15
10 -30 -4 -31 -3 -28 29 3 37 26 51 34 20 6 -23 23 -29 23 -8 0 34 -62 52 -74
21z"/>
<path d="M5682 3508 c-20 -20 -15 -66 9 -78 21 -12 49 -7 49 8 0 5 -10 8 -22
8 -19 -1 -23 4 -23 29 0 20 5 30 15 30 8 0 14 -8 14 -17 -1 -10 4 -18 12 -18
15 0 17 10 8 34 -7 19 -45 21 -62 4z"/>
<path d="M5840 3500 c-22 -42 19 -92 59 -71 23 13 32 35 24 59 -14 37 -66 44
-83 12z m60 -9 c13 -25 3 -51 -20 -51 -23 0 -36 36 -20 55 17 20 27 19 40 -4z"/>
<path d="M6025 3510 c-4 -7 2 -9 18 -5 20 5 25 2 29 -19 6 -31 -5 -51 -26 -43
-10 4 -13 13 -9 24 6 17 5 17 -13 1 -16 -16 -16 -20 -4 -32 10 -9 27 -12 48
-9 30 5 32 8 29 38 -2 17 -7 37 -11 43 -9 15 -53 16 -61 2z"/>
<path d="M6127 3505 c-4 -9 5 -21 23 -32 37 -21 39 -37 5 -31 -14 3 -25 2 -25
-3 0 -12 35 -20 54 -13 25 10 16 47 -13 54 -14 3 -27 12 -29 19 -4 11 3 13 27
8 20 -4 30 -3 26 3 -10 15 -62 12 -68 -5z"/>
<path d="M1951 3501 c-12 -8 -12 -12 -2 -25 8 -9 22 -16 32 -16 13 0 19 -7 19
-21 0 -11 5 -17 10 -14 20 12 9 37 -20 48 -36 14 -40 31 -5 25 14 -3 25 -1 25
3 0 12 -41 11 -59 0z"/>
<path d="M2054 3495 c-8 -19 3 -35 25 -35 26 0 33 -11 18 -28 -10 -13 -9 -14
3 -10 26 8 23 37 -4 49 -31 14 -35 34 -6 26 11 -3 20 -1 20 4 0 15 -50 10 -56
-6z"/>
<path d="M2159 3489 c-16 -30 3 -69 34 -69 29 0 47 17 47 45 0 45 -60 63 -81
24z m59 -22 c2 -18 -2 -29 -13 -33 -24 -9 -39 10 -31 41 9 35 40 30 44 -8z"/>
<path d="M2269 3489 c-17 -34 4 -71 38 -67 14 2 29 10 31 18 5 13 3 13 -12 1
-15 -12 -19 -12 -34 3 -21 21 -4 52 27 49 13 -2 20 1 16 7 -11 18 -54 11 -66
-11z"/>
<path d="M2377 3503 c-11 -10 -8 -83 3 -83 6 0 10 20 10 45 0 46 -2 50 -13 38z"/>
<path d="M2430 3502 c0 -5 10 -8 22 -8 18 1 22 -5 23 -34 0 -19 4 -34 8 -32 4
1 7 4 7 7 0 3 0 21 0 40 0 32 -2 35 -30 35 -16 0 -30 -4 -30 -8z"/>
<path d="M2532 3498 c-20 -20 -14 -56 14 -74 14 -9 23 -23 20 -30 -10 -26 3
-14 18 18 16 30 13 55 -3 30 -9 -15 -41 -5 -41 13 0 24 12 45 26 45 8 0 14 -5
14 -11 0 -5 5 -7 10 -4 6 4 8 11 5 16 -9 13 -49 11 -63 -3z"/>
<path d="M2675 3467 c0 -29 4 -44 13 -44 9 0 12 13 10 40 -4 55 -23 58 -23 4z"/>
<path d="M2740 3494 c-10 -11 -11 -23 -4 -42 17 -48 84 -38 84 12 0 43 -53 63
-80 30z m44 0 c21 -8 21 -50 0 -58 -22 -8 -34 1 -34 28 0 33 8 40 34 30z"/>
<path d="M3034 3486 c-6 -27 3 -66 16 -66 4 0 7 17 6 38 -1 27 3 37 14 37 8 0
14 -8 14 -17 -2 -18 7 -23 19 -12 13 13 -14 44 -38 44 -18 0 -26 -7 -31 -24z"/>
<path d="M3140 3466 c0 -25 5 -46 10 -46 6 0 10 18 10 39 0 22 -4 43 -10 46
-6 4 -10 -12 -10 -39z"/>
<path d="M3183 3499 c11 -6 17 -22 17 -44 0 -19 5 -35 10 -35 11 0 14 49 4 74
-3 9 -16 16 -28 16 -19 -1 -19 -2 -3 -11z"/>
<path d="M3250 3489 c-13 -24 0 -69 21 -69 8 0 8 4 1 13 -6 6 -8 24 -5 40 8
39 41 35 34 -5 0 -5 4 -8 10 -8 6 0 9 10 7 23 -4 32 -52 36 -68 6z"/>
<path d="M3423 3465 c0 -27 2 -38 4 -22 2 15 2 37 0 50 -2 12 -4 0 -4 -28z"/>
<path d="M3469 3489 c-17 -34 4 -71 38 -67 14 2 29 10 31 18 4 12 3 13 -10 2
-24 -19 -50 -4 -46 27 2 22 8 26 31 24 15 -1 25 2 22 8 -11 17 -54 10 -66 -12z"/>
<path d="M3570 3489 c-13 -24 0 -69 21 -69 8 0 8 4 1 13 -16 19 -3 69 17 65 9
-2 15 -11 15 -21 -1 -9 3 -17 8 -17 5 0 8 10 6 23 -4 32 -52 36 -68 6z"/>
<path d="M3678 3470 c-2 -23 -1 -43 3 -46 10 -6 18 69 9 79 -4 5 -10 -10 -12
-33z"/>
<path d="M3719 3502 c8 -6 17 -27 22 -48 l7 -39 -1 45 c-2 36 -6 45 -22 48
-15 2 -17 1 -6 -6z"/>
<path d="M3850 3489 c-17 -31 2 -69 34 -69 14 0 27 4 31 9 3 6 -7 9 -22 8 -24
-2 -28 2 -27 23 2 39 3 40 19 40 14 0 19 -12 16 -32 0 -5 4 -8 10 -8 6 0 9 10
7 23 -4 32 -52 36 -68 6z"/>
<path d="M4122 3468 c2 -34 7 -43 23 -45 11 -2 14 0 8 3 -7 3 -13 23 -13 45 0
21 -5 39 -11 39 -6 0 -9 -17 -7 -42z"/>
<path d="M4180 3475 c0 -19 0 -38 -1 -42 0 -4 4 -9 10 -11 7 -2 11 14 11 42 0
25 -4 46 -10 46 -5 0 -10 -16 -10 -35z"/>
<path d="M4302 3498 c-13 -13 -15 -37 -6 -62 7 -17 64 -23 64 -6 0 5 -10 9
-22 7 -19 -2 -23 3 -23 28 0 20 5 30 15 30 8 0 14 -8 14 -17 -2 -18 7 -23 19
-12 3 4 2 15 -4 25 -11 22 -39 25 -57 7z"/>
<path d="M4400 3463 c0 -24 5 -43 10 -43 6 0 10 16 10 35 0 22 6 38 18 44 14
9 13 10 -10 9 -26 -2 -28 -6 -28 -45z"/>
<path d="M4496 3504 c18 -4 22 -12 20 -45 -2 -27 2 -39 11 -39 10 0 13 12 11
43 -3 39 -5 42 -33 44 -18 1 -21 -1 -9 -3z"/>
<path d="M4573 3468 c4 -44 17 -64 17 -25 0 67 34 78 48 15 l10 -43 1 47 1 48
-40 -2 -41 -1 4 -39z"/>
<path d="M4690 3501 c0 -6 7 -8 15 -5 25 10 40 -7 20 -23 -18 -12 -18 -13 -1
-13 22 0 16 -24 -7 -28 -11 -2 -17 3 -17 14 0 13 -3 15 -11 7 -18 -18 -1 -32
37 -31 35 1 35 2 32 42 -3 38 -5 41 -35 44 -18 2 -33 -1 -33 -7z"/>
<path d="M2420 3440 c0 -11 6 -20 14 -20 9 0 12 7 9 20 -3 11 -9 20 -14 20 -5
0 -9 -9 -9 -20z"/>
<path d="M2626 3452 c-3 -5 1 -15 9 -22 21 -17 27 -9 10 13 -7 10 -16 14 -19
9z"/>
<path d="M4465 3450 c-4 -6 -2 -17 4 -23 15 -15 25 -2 13 19 -7 12 -11 13 -17
4z"/>
<path d="M1945 3430 c3 -5 13 -10 21 -10 8 0 12 5 9 10 -3 6 -13 10 -21 10 -8
0 -12 -4 -9 -10z"/>
<path d="M2055 3430 c3 -5 11 -10 16 -10 6 0 7 5 4 10 -3 6 -11 10 -16 10 -6
0 -7 -4 -4 -10z"/>
<path d="M3075 3430 c-3 -5 1 -10 9 -10 9 0 16 5 16 10 0 6 -4 10 -9 10 -6 0
-13 -4 -16 -10z"/>
<path d="M3295 3430 c-3 -5 -2 -10 4 -10 5 0 13 5 16 10 3 6 2 10 -4 10 -5 0
-13 -4 -16 -10z"/>
<path d="M3615 3430 c-3 -5 -2 -10 4 -10 5 0 13 5 16 10 3 6 2 10 -4 10 -5 0
-13 -4 -16 -10z"/>
</g>
</svg>
